<svg id="Layer_1" data-name="Layer 1" xmlns="http://www.w3.org/2000/svg" viewBox="0 0 49.71 55.33"><defs><style>.cls-1{fill:#24527c;}</style></defs><title>SNL_Graphic Elements</title><path class="cls-1" d="M56.63,36.81l-2.95,2.83a27,27,0,0,1-14.35,7.19A35.23,35.23,0,0,0,56.64,76.67,35.23,35.23,0,0,0,74,46.82,27.32,27.32,0,0,1,58.9,39.1Z" transform="translate(-31.75 -30)"/><path class="cls-1" d="M78.47,39.89l-1.33-.17a30.19,30.19,0,0,1-18-9.15L58.57,30H54c-4,5.3-11.06,8.74-18.13,9.7l-1.17.18-2.94,2.44a49.69,49.69,0,0,0,24.86,43h0a49.67,49.67,0,0,0,24.84-43ZM75,46.39A36.25,36.25,0,0,1,56.91,77.68l-.26.14-.42-.14A36.39,36.39,0,0,1,38,46.39V46l.59-.07a26.28,26.28,0,0,0,14.32-7l3.7-3.51,3,3a26.39,26.39,0,0,0,14.95,7.5L75,46Z" transform="translate(-31.75 -30)"/></svg>